<?xml version="1.0" standalone="no"?>
<!DOCTYPE svg PUBLIC "-//W3C//DTD SVG 20010904//EN"
 "http://www.w3.org/TR/2001/REC-SVG-20010904/DTD/svg10.dtd">
<svg version="1.0" xmlns="http://www.w3.org/2000/svg"
 width="2560.000000pt" height="2560.000000pt" viewBox="0 0 2560.000000 2560.000000"
 preserveAspectRatio="xMidYMid meet">

<g transform="translate(0.000000,2560.000000) scale(0.100000,-0.100000)"
fill="#fff" stroke="none">
<path d="M14155 23004 c-44 -7 -107 -13 -140 -14 -33 0 -94 -9 -135 -20 -41
-11 -87 -20 -102 -20 -45 0 -312 -52 -418 -81 -19 -6 -105 -28 -190 -50 -85
-21 -186 -49 -225 -60 -144 -43 -302 -92 -358 -110 -31 -11 -66 -19 -76 -19
-11 0 -22 -4 -25 -9 -3 -5 -72 -30 -153 -56 -82 -26 -157 -53 -168 -60 -11 -6
-31 -14 -45 -17 -14 -4 -72 -25 -130 -48 -58 -23 -118 -47 -135 -52 -63 -22
-234 -94 -315 -132 -30 -14 -58 -26 -62 -26 -10 0 -328 -147 -373 -172 -23
-13 -214 -108 -265 -132 -19 -9 -48 -25 -65 -34 -16 -9 -61 -34 -100 -55 -38
-20 -77 -42 -85 -47 -8 -5 -65 -37 -126 -70 -62 -33 -117 -67 -124 -75 -7 -8
-18 -15 -24 -15 -6 -1 -42 -21 -81 -45 -38 -25 -88 -54 -110 -66 -22 -12 -49
-29 -60 -38 -11 -10 -40 -30 -65 -45 -72 -43 -203 -128 -251 -163 -24 -17 -66
-47 -92 -65 -119 -82 -441 -330 -497 -383 -25 -23 -67 -59 -95 -80 -128 -94
-501 -494 -527 -565 -9 -25 10 -90 28 -97 8 -3 37 4 64 16 27 11 58 21 69 21
11 0 35 6 53 14 53 22 100 37 148 48 25 6 54 17 65 24 11 8 30 14 42 14 12 0
37 6 55 14 40 18 121 44 168 56 48 12 129 40 162 56 14 8 34 14 43 14 9 0 31
7 48 15 38 17 228 82 277 95 49 12 129 39 168 56 18 8 40 14 50 14 9 0 39 9
67 19 27 11 75 26 105 34 30 9 87 25 125 36 39 12 78 21 89 21 10 0 39 6 65
14 25 8 70 20 99 25 109 22 159 33 213 47 30 8 71 14 90 14 19 0 59 7 89 15
30 8 87 18 125 21 39 3 87 10 107 15 41 11 538 40 550 33 4 -2 53 0 110 5 65
6 140 6 203 0 55 -5 138 -11 185 -14 84 -6 222 -25 330 -46 30 -6 78 -16 105
-21 57 -11 128 -30 200 -53 28 -9 66 -20 85 -25 19 -4 67 -20 105 -35 39 -14
81 -30 95 -35 30 -10 94 -36 135 -55 17 -7 73 -32 125 -54 144 -62 483 -235
520 -266 8 -7 39 -26 69 -41 75 -40 88 -48 109 -67 10 -10 24 -17 30 -17 6 0
30 -15 54 -33 24 -18 54 -38 68 -45 14 -7 57 -35 95 -62 123 -88 175 -124 230
-160 57 -38 215 -143 255 -170 14 -9 61 -33 105 -54 44 -20 94 -44 110 -52 37
-17 102 -38 225 -69 126 -33 276 -34 388 -4 148 40 199 69 302 167 65 60 96
98 118 145 44 91 70 157 77 202 4 22 12 46 18 54 16 18 22 263 8 326 -29 136
-55 224 -86 290 -7 17 -16 37 -19 45 -11 27 -68 124 -114 194 -106 158 -277
322 -467 447 -92 61 -182 118 -225 144 -19 11 -44 26 -55 33 -51 31 -163 88
-195 98 -19 7 -60 22 -90 34 -30 12 -75 27 -100 34 -25 7 -56 18 -67 25 -12 6
-35 11 -50 11 -16 0 -54 9 -86 20 -31 11 -74 20 -94 20 -21 0 -54 5 -73 11
-19 5 -71 14 -115 19 -44 5 -136 16 -205 24 -69 9 -172 16 -230 16 -110 0
-541 -33 -670 -51 -41 -6 -120 -15 -175 -19 -55 -5 -125 -16 -155 -24 -30 -9
-76 -16 -101 -16 -25 0 -68 -6 -95 -14 -27 -8 -76 -17 -109 -21 -33 -4 -75
-13 -94 -21 -18 -8 -49 -14 -68 -14 -37 0 -128 -20 -231 -51 -34 -11 -73 -19
-87 -19 -14 0 -42 -7 -62 -15 -21 -8 -58 -19 -83 -24 -25 -5 -58 -14 -75 -19
-29 -10 -136 -42 -225 -68 -25 -7 -67 -20 -95 -29 -27 -9 -69 -20 -92 -25 -23
-5 -50 -13 -60 -19 -10 -5 -58 -21 -108 -37 -49 -15 -94 -30 -100 -33 -5 -3
-28 -11 -50 -17 -45 -13 -73 -23 -195 -70 -47 -18 -120 -44 -164 -59 -43 -15
-86 -30 -95 -35 -26 -15 -109 -50 -117 -50 -4 0 -28 -9 -53 -21 -72 -33 -114
-51 -146 -65 -75 -31 -424 -204 -429 -213 -4 -5 -20 -12 -36 -16 -16 -4 -33
-12 -37 -18 -5 -7 -25 -20 -46 -30 -38 -17 -38 -17 -35 4 2 14 20 30 53 47 28
14 53 32 58 38 4 7 32 28 63 46 30 18 70 42 88 53 100 61 152 93 199 122 29
18 63 38 77 45 14 7 48 27 75 44 28 17 100 57 160 89 61 31 117 63 125 70 8 7
26 16 40 20 14 4 32 13 40 19 23 18 238 126 252 126 6 0 19 6 27 13 9 8 97 49
196 91 99 43 189 81 200 86 45 21 212 82 235 87 14 3 30 10 36 15 7 5 54 22
105 39 52 16 108 36 126 44 17 8 42 15 55 15 12 1 34 7 48 15 14 8 38 14 53
15 15 0 45 9 67 20 22 11 52 20 67 20 15 0 37 7 47 15 11 8 30 15 43 15 12 0
45 9 73 20 28 11 64 20 81 20 17 0 39 5 49 10 11 6 54 17 97 25 43 8 96 19
118 24 57 14 210 39 280 46 33 4 98 13 144 21 46 8 122 14 170 14 47 0 136 5
196 11 137 14 452 14 605 0 63 -6 151 -11 195 -11 44 -1 100 -5 125 -10 25 -5
93 -16 152 -24 59 -8 116 -20 127 -25 11 -6 33 -11 50 -11 17 0 48 -7 68 -15
21 -8 58 -19 83 -24 105 -21 466 -171 485 -201 3 -6 14 -10 24 -10 10 0 24 -7
31 -14 6 -8 31 -24 54 -36 186 -90 517 -370 649 -550 125 -170 257 -419 257
-486 0 -11 6 -28 14 -39 7 -11 17 -40 21 -65 4 -25 14 -57 21 -72 8 -15 14
-47 14 -71 0 -24 7 -68 17 -98 21 -71 25 -417 4 -464 -7 -16 -16 -50 -21 -75
-9 -50 -32 -115 -61 -176 -22 -47 -24 -74 -5 -74 20 0 172 80 241 127 74 51
169 147 227 233 52 76 128 213 128 232 0 7 9 30 20 51 11 20 20 50 20 66 0 16
7 45 15 64 10 24 15 70 15 135 0 63 -6 115 -15 142 -8 23 -15 59 -15 79 0 20
-6 48 -14 63 -8 15 -17 42 -21 60 -7 36 -26 89 -56 154 -10 23 -19 45 -19 51
0 32 -158 322 -238 435 -117 165 -463 465 -579 502 -12 4 -27 13 -33 21 -7 8
-20 15 -29 15 -9 1 -29 12 -46 25 -24 20 -26 25 -13 30 9 4 30 -1 47 -9 16 -9
39 -16 49 -16 11 0 33 -7 48 -15 16 -8 37 -15 46 -15 9 0 29 -6 45 -14 15 -8
73 -34 128 -57 129 -55 257 -122 300 -159 10 -8 33 -24 51 -35 131 -81 344
-305 436 -460 47 -78 108 -197 108 -209 0 -5 8 -27 19 -50 29 -65 43 -107 51
-161 4 -27 15 -74 24 -104 9 -30 16 -78 16 -106 0 -28 7 -72 15 -97 22 -64 17
-401 -8 -508 -10 -41 -22 -84 -27 -95 -17 -35 -42 -109 -43 -129 -1 -10 4 -21
11 -24 20 -6 201 184 242 254 19 32 52 88 75 124 71 113 155 303 155 350 0 14
8 39 18 55 25 44 25 368 0 438 -10 26 -18 72 -18 102 0 30 -6 72 -14 92 -8 21
-17 56 -21 78 -3 22 -13 56 -22 75 -9 19 -23 51 -31 70 -73 164 -228 384 -379
538 -349 358 -687 587 -1105 753 -57 22 -112 44 -123 48 -67 27 -143 51 -225
71 -25 6 -74 20 -110 31 -77 22 -211 52 -335 74 -49 9 -117 23 -150 31 -33 8
-112 19 -175 24 -63 6 -133 15 -155 20 -61 15 -733 10 -830 -6z"/>
<path d="M11175 20565 c-60 -7 -144 -16 -185 -20 -41 -3 -115 -12 -165 -20
-165 -25 -358 -47 -495 -55 -74 -5 -155 -13 -180 -18 -25 -6 -83 -13 -130 -17
-47 -4 -96 -12 -110 -17 -14 -6 -50 -16 -80 -23 -89 -21 -197 -55 -255 -81
-16 -7 -59 -25 -95 -39 -71 -28 -126 -53 -150 -67 -8 -4 -22 -11 -30 -14 -22
-9 -388 -192 -440 -221 -291 -160 -656 -339 -795 -390 -195 -72 -251 -88 -388
-108 -54 -8 -103 -17 -108 -20 -21 -14 -6 -44 49 -96 100 -95 185 -122 382
-120 264 2 467 21 522 48 15 7 36 13 46 13 20 0 96 29 144 56 14 7 32 14 40
14 7 0 31 9 53 19 22 11 65 30 95 42 30 12 82 34 115 49 33 16 83 38 110 50
28 11 63 28 78 35 16 8 35 15 43 15 8 0 31 9 51 20 21 11 45 20 53 20 9 0 24
6 35 14 11 7 37 16 57 20 20 4 50 13 65 21 15 8 41 15 56 15 15 0 40 6 55 14
15 8 61 19 102 26 41 6 98 15 125 20 67 12 499 12 555 -1 25 -5 74 -14 110
-20 36 -6 86 -17 111 -25 26 -8 59 -14 73 -14 15 0 44 -9 66 -20 22 -11 48
-20 60 -20 11 0 60 -16 109 -35 48 -19 93 -35 99 -35 6 0 23 -6 39 -14 62 -31
124 -56 137 -56 8 0 46 -16 85 -35 39 -19 73 -35 77 -35 4 0 25 -9 48 -19 23
-11 66 -29 96 -41 30 -12 70 -28 88 -36 39 -17 80 -34 152 -64 30 -12 69 -28
85 -35 17 -7 57 -22 90 -34 33 -12 75 -29 93 -37 18 -8 38 -14 44 -14 7 0 30
-9 52 -19 23 -10 52 -21 66 -24 26 -5 63 -18 145 -48 28 -11 63 -19 78 -19 15
0 40 -6 55 -14 15 -7 54 -17 87 -21 33 -4 72 -13 87 -21 15 -8 46 -14 70 -14
24 -1 61 -7 83 -15 22 -8 69 -17 105 -20 36 -4 107 -13 158 -22 73 -12 133
-14 265 -10 177 7 507 38 587 56 25 6 64 10 88 11 24 0 52 5 63 11 11 5 52 16
92 24 85 16 168 39 196 54 11 6 28 11 38 11 10 0 31 7 46 15 16 8 46 19 67 25
23 6 40 17 43 29 5 22 -174 241 -284 346 -118 112 -325 274 -404 316 -22 12
-48 29 -58 37 -24 21 -156 103 -227 140 -30 16 -84 46 -120 66 -36 20 -76 42
-90 47 -14 6 -32 15 -40 20 -8 5 -26 14 -40 20 -58 25 -178 81 -212 99 -20 11
-46 20 -57 20 -11 0 -22 4 -26 9 -3 5 -20 13 -38 16 -17 4 -43 13 -57 21 -34
19 -86 37 -257 88 -27 8 -61 19 -78 25 -89 29 -175 51 -199 51 -14 0 -42 6
-61 14 -18 8 -60 17 -92 21 -32 4 -80 13 -107 21 -27 8 -79 14 -115 14 -36 0
-97 7 -136 15 -100 22 -516 28 -660 10z"/>
<path d="M9805 19381 c-16 -5 -70 -9 -120 -10 -49 -1 -117 -7 -150 -15 -33 -8
-82 -17 -110 -21 -27 -4 -57 -11 -66 -16 -9 -4 -45 -15 -80 -23 -126 -28 -226
-63 -464 -161 -60 -24 -116 -45 -123 -45 -8 0 -26 -7 -40 -14 -46 -25 -203
-87 -287 -113 -44 -13 -91 -30 -105 -37 -14 -7 -70 -23 -125 -36 -55 -12 -119
-28 -143 -36 -23 -8 -60 -14 -81 -14 -20 0 -71 -9 -112 -20 -104 -27 -283 -28
-371 0 -34 11 -70 20 -79 20 -26 0 -188 74 -272 123 -64 38 -79 44 -84 31 -15
-41 339 -435 481 -535 170 -120 321 -197 476 -242 125 -36 386 -47 680 -26 85
5 180 17 209 26 30 8 78 19 105 23 28 5 71 14 96 20 79 21 184 50 215 61 17 6
46 15 65 19 46 11 127 38 168 56 18 8 40 14 50 14 10 0 34 9 55 20 20 11 47
20 59 20 13 0 32 7 42 15 11 8 30 15 43 15 13 0 40 9 60 20 21 11 44 20 53 20
12 0 73 21 145 51 11 4 76 26 145 49 69 22 152 49 185 60 33 11 70 20 83 20
13 0 32 5 43 11 11 6 41 14 67 19 26 4 76 15 112 23 132 31 216 47 245 47 17
0 55 7 85 15 51 15 209 29 438 41 51 3 113 1 138 -4 43 -9 45 -9 42 11 -2 14
-26 35 -68 60 -74 44 -324 167 -339 167 -5 0 -22 6 -38 14 -84 41 -194 86
-209 86 -7 0 -33 8 -56 19 -55 24 -132 48 -183 57 -22 4 -54 13 -72 21 -18 7
-50 13 -71 13 -22 0 -58 7 -81 14 -22 8 -69 18 -103 21 -35 4 -79 11 -98 17
-83 23 -402 43 -455 29z"/>
<path d="M17425 19371 c-38 -4 -79 -12 -90 -17 -11 -6 -46 -16 -77 -23 -32 -7
-60 -17 -63 -22 -4 -5 -16 -9 -29 -9 -12 0 -60 -14 -106 -30 -108 -39 -173
-59 -230 -71 -114 -23 -254 -39 -338 -39 -50 0 -163 -7 -249 -15 -87 -8 -248
-19 -358 -24 -110 -5 -213 -14 -228 -20 -16 -6 -46 -11 -67 -11 -21 0 -62 -8
-92 -19 -29 -10 -107 -35 -173 -56 -66 -20 -133 -43 -150 -51 -16 -7 -43 -16
-60 -20 -16 -4 -34 -10 -40 -14 -19 -15 -263 -96 -374 -125 -30 -8 -59 -19
-64 -24 -6 -6 -22 -11 -36 -11 -15 0 -53 -9 -86 -19 -74 -24 -134 -39 -204
-52 -29 -5 -63 -15 -74 -21 -11 -6 -46 -14 -76 -18 -31 -4 -76 -12 -101 -18
-48 -12 -197 -43 -295 -62 -33 -6 -100 -16 -150 -21 -49 -5 -116 -16 -148 -24
-32 -8 -84 -15 -115 -15 -31 0 -88 -7 -127 -16 -114 -25 -383 -33 -1065 -30
-500 2 -657 0 -700 -10 -30 -7 -82 -13 -115 -14 -33 0 -76 -5 -95 -10 -19 -6
-83 -17 -141 -25 -59 -8 -119 -19 -133 -25 -15 -5 -44 -10 -65 -10 -21 0 -64
-9 -96 -20 -32 -11 -71 -20 -87 -20 -16 0 -45 -7 -65 -15 -19 -8 -43 -15 -52
-15 -18 0 -107 -26 -246 -72 -49 -16 -103 -33 -120 -38 -16 -5 -61 -21 -100
-35 -38 -15 -84 -30 -100 -34 -17 -4 -39 -12 -50 -18 -29 -15 -129 -53 -140
-53 -5 0 -48 -15 -95 -34 -111 -43 -220 -76 -254 -76 -14 0 -43 -7 -63 -15
-19 -8 -50 -15 -67 -15 -17 0 -56 -7 -86 -16 -30 -8 -93 -19 -140 -24 -47 -5
-112 -14 -145 -20 -33 -6 -211 -15 -395 -19 -198 -5 -357 -13 -390 -20 -203
-46 -312 -96 -402 -184 -35 -34 -69 -73 -75 -87 -49 -103 -53 -120 -53 -212 0
-116 21 -161 122 -264 82 -84 183 -139 279 -155 34 -5 66 -12 71 -15 5 -3 48
-10 96 -15 48 -4 134 -13 190 -19 72 -7 132 -7 195 0 51 5 115 12 142 15 102
11 292 57 373 91 18 8 37 14 43 14 6 0 25 6 42 14 124 55 151 66 162 66 7 0
18 7 25 15 7 8 23 15 35 15 12 0 28 7 35 15 7 8 17 15 22 15 16 0 197 109 268
161 50 37 82 72 135 150 100 147 178 219 237 219 48 0 53 -25 50 -230 -2 -142
-7 -203 -22 -266 -11 -45 -20 -92 -20 -104 0 -23 -14 -70 -58 -195 -39 -112
-49 -137 -76 -185 -14 -25 -33 -58 -42 -74 -21 -38 -8 -46 65 -39 64 5 275 47
315 63 15 5 42 10 59 10 18 0 58 9 90 20 31 11 67 20 79 20 12 0 45 9 73 19
27 11 77 27 110 36 33 9 77 23 98 31 20 8 48 14 60 14 12 0 39 9 60 20 20 11
46 20 56 20 11 0 61 16 111 35 50 19 105 35 121 35 17 0 43 7 59 15 15 8 55
18 87 21 32 4 66 11 75 16 54 27 341 58 548 58 80 0 213 5 295 11 146 9 759
13 860 4 28 -2 129 -6 225 -10 501 -16 714 -28 870 -50 91 -13 210 -26 265
-30 55 -4 118 -11 140 -16 22 -6 103 -14 180 -19 77 -4 152 -13 167 -19 15 -5
72 -15 127 -20 54 -6 119 -15 143 -20 41 -9 105 -20 243 -42 33 -6 81 -17 106
-25 26 -7 63 -14 82 -14 19 0 71 -7 114 -15 148 -28 629 -9 753 31 25 8 56 14
70 14 14 0 54 8 90 19 76 23 146 37 250 52 41 5 97 16 124 24 27 8 86 15 130
15 45 0 97 4 116 10 19 5 95 15 170 20 74 6 162 15 195 21 33 7 116 15 185 20
69 4 148 12 175 18 28 6 92 15 144 20 72 7 98 13 108 27 15 21 16 90 2 154 -5
25 -15 86 -22 135 -7 50 -19 100 -25 112 -7 12 -12 39 -12 61 0 22 -9 68 -20
102 -11 34 -20 76 -20 92 0 17 -6 51 -14 77 -16 51 -31 108 -50 192 -15 62
-25 95 -55 189 -12 36 -21 75 -21 88 0 13 -6 35 -14 50 -8 15 -19 50 -24 77
-6 28 -15 64 -20 80 -6 17 -20 64 -32 105 -12 41 -27 89 -34 105 -8 17 -17 45
-21 63 -4 18 -13 45 -21 60 -8 15 -14 36 -14 48 0 11 -7 29 -15 40 -8 10 -15
25 -15 32 0 17 -77 178 -101 212 -9 14 -37 57 -62 95 -45 70 -86 114 -142 152
-36 25 -113 34 -210 24z m-7628 -1556 c13 -14 23 -34 23 -43 0 -20 -40 -83
-79 -125 -37 -41 -183 -152 -230 -176 -22 -12 -42 -25 -45 -29 -5 -8 -129 -71
-211 -108 -100 -44 -253 -94 -288 -94 -15 0 -44 -7 -64 -15 -19 -8 -49 -15
-64 -15 -16 0 -66 -9 -110 -21 -72 -19 -101 -20 -277 -16 -168 4 -206 7 -255
25 -76 28 -165 79 -194 111 -64 73 23 145 112 93 43 -24 286 -24 364 1 30 9
70 17 88 17 19 0 44 5 56 12 12 6 47 17 77 24 30 7 71 18 90 25 19 7 60 21 90
32 30 11 67 26 82 33 14 8 33 14 42 14 8 0 37 10 63 22 53 23 82 36 163 68 71
29 93 38 225 101 60 28 121 55 135 60 14 4 43 15 65 24 55 21 114 13 142 -20z"/>
<path d="M9659 16924 c-45 -47 -185 -129 -329 -192 -246 -108 -523 -162 -833
-162 -128 0 -186 4 -216 15 -37 13 -42 13 -48 -1 -3 -9 2 -31 11 -50 9 -19 16
-52 16 -72 0 -21 6 -62 14 -92 8 -30 17 -82 21 -115 5 -33 14 -77 21 -99 8
-21 14 -55 14 -75 0 -21 6 -60 14 -87 8 -27 17 -74 21 -104 9 -77 23 -118 45
-130 31 -16 151 -11 231 10 41 11 90 20 109 20 19 0 60 9 90 20 30 11 71 20
90 20 19 0 44 7 54 15 11 8 29 15 40 15 28 0 127 38 271 105 112 52 194 118
195 158 0 14 -9 17 -47 17 -27 -1 -59 -7 -73 -15 -14 -8 -47 -14 -75 -15 -27
0 -96 -9 -153 -20 -152 -30 -417 -29 -496 1 -31 12 -56 25 -56 29 0 17 43 60
60 60 9 0 23 7 30 15 7 8 17 15 23 15 5 0 28 9 51 19 312 145 436 207 506 252
107 70 232 173 290 240 118 137 172 209 166 224 -8 22 -19 19 -57 -21z"/>
<path d="M11080 16044 c-14 -2 -79 -13 -145 -25 -66 -11 -136 -25 -155 -31
-19 -6 -60 -17 -90 -24 -30 -7 -77 -20 -105 -29 -27 -9 -66 -20 -85 -25 -64
-16 -215 -63 -230 -72 -8 -4 -71 -26 -140 -49 -69 -22 -138 -47 -155 -54 -49
-21 -317 -117 -350 -126 -16 -4 -52 -16 -80 -27 -27 -11 -66 -26 -85 -32 -76
-27 -166 -69 -232 -109 -71 -43 -44 -91 82 -149 164 -76 311 -93 440 -52 34
11 73 20 87 20 13 0 36 6 51 14 15 7 46 17 69 21 38 6 41 5 36 -14 -6 -24
-164 -171 -232 -217 -75 -51 -104 -90 -97 -133 19 -116 19 -128 -5 -176 -47
-94 -125 -125 -209 -82 -97 50 -142 87 -340 281 -312 305 -387 354 -571 377
-203 25 -429 -6 -534 -73 -58 -37 -156 -144 -196 -213 -50 -86 -119 -232 -119
-250 0 -9 -6 -28 -14 -43 -7 -15 -17 -47 -21 -72 -4 -25 -13 -64 -21 -88 -8
-23 -14 -62 -14 -86 0 -23 -7 -65 -15 -92 -20 -66 -20 -349 0 -459 8 -44 15
-101 15 -126 0 -25 6 -68 14 -95 8 -27 17 -69 21 -94 4 -25 13 -65 20 -90 47
-156 69 -221 77 -226 4 -3 8 -12 8 -21 0 -9 8 -35 19 -57 10 -23 31 -70 46
-106 16 -36 43 -92 61 -125 17 -33 40 -76 50 -95 11 -19 24 -39 30 -45 6 -5
21 -28 34 -50 70 -118 238 -303 355 -390 156 -115 289 -195 326 -195 8 0 24
-7 35 -15 10 -8 26 -15 34 -15 8 0 33 -9 55 -20 22 -11 54 -19 71 -20 17 0 51
-7 76 -15 67 -23 363 -16 473 12 174 44 343 152 418 266 41 63 73 122 87 161
10 28 11 28 31 10 21 -19 119 -209 119 -230 0 -16 57 -120 100 -184 21 -30 58
-86 82 -125 82 -128 209 -278 392 -460 202 -200 225 -222 311 -285 33 -24 74
-56 90 -71 17 -16 75 -58 130 -95 55 -36 102 -70 105 -74 3 -5 43 -33 90 -63
47 -31 96 -64 110 -75 14 -10 56 -35 94 -55 38 -21 75 -42 81 -47 17 -14 147
-83 320 -171 77 -38 147 -74 155 -79 15 -9 122 -57 233 -104 17 -7 70 -30 115
-50 46 -20 91 -36 100 -36 10 0 31 -9 47 -20 17 -11 39 -20 51 -20 11 0 29 -7
40 -15 10 -8 28 -15 38 -15 10 0 37 -8 60 -19 54 -24 139 -51 162 -51 11 0 33
-7 49 -16 17 -8 53 -20 80 -25 28 -5 59 -13 70 -18 39 -18 152 -51 172 -51 11
0 36 -6 54 -14 19 -7 58 -16 88 -20 30 -4 67 -14 82 -22 15 -7 44 -14 63 -14
19 0 55 -7 80 -15 25 -9 75 -19 113 -24 37 -5 81 -14 96 -20 16 -6 50 -11 76
-11 26 0 70 -7 97 -15 27 -8 117 -20 199 -25 83 -6 166 -15 185 -20 98 -27
628 -40 795 -20 50 6 137 15 195 20 208 20 286 31 323 46 20 7 53 14 72 14 19
0 52 7 72 15 21 8 74 26 118 40 122 37 177 56 210 70 17 7 57 23 90 35 33 12
67 26 75 31 8 5 22 12 30 15 18 7 99 44 120 55 215 116 376 217 448 280 23 20
57 44 75 53 18 8 42 25 53 37 10 12 53 47 94 78 99 75 442 416 516 514 114
152 189 258 229 323 22 36 45 71 50 78 24 28 184 350 214 431 12 33 29 74 36
90 16 33 33 80 71 200 15 44 33 95 40 113 8 18 14 42 14 53 0 11 9 45 20 76
11 32 20 75 20 96 0 21 7 51 15 67 8 16 18 58 21 92 3 35 12 85 20 112 8 27
14 70 14 94 0 24 7 70 15 101 8 32 19 152 25 281 6 123 15 253 20 289 12 84
13 348 1 355 -5 3 -31 -13 -57 -37 -96 -85 -225 -160 -324 -190 -30 -9 -82
-24 -115 -34 -83 -24 -330 -25 -395 -1 -25 10 -74 25 -110 34 -116 30 -281
119 -474 257 -99 70 -306 282 -367 377 -114 176 -105 160 -179 310 -89 179
-100 205 -100 227 0 10 -5 24 -11 30 -10 10 -26 64 -53 184 -8 30 -18 64 -23
75 -6 10 -13 53 -16 94 -4 41 -13 93 -21 115 -8 22 -15 56 -16 75 -1 56 -51
134 -100 154 -22 9 -49 16 -60 16 -41 0 -85 -87 -112 -225 -5 -27 -16 -72 -23
-100 -8 -27 -18 -72 -24 -100 -13 -69 -33 -143 -88 -335 -9 -30 -22 -77 -30
-105 -8 -27 -21 -70 -29 -95 -9 -25 -18 -56 -21 -70 -2 -14 -13 -43 -23 -65
-35 -74 -50 -113 -50 -125 0 -7 -7 -24 -15 -38 -8 -15 -28 -56 -44 -92 -28
-62 -141 -258 -178 -310 -128 -177 -320 -371 -454 -458 -52 -34 -105 -69 -119
-79 -14 -10 -63 -36 -110 -57 -47 -21 -96 -44 -110 -51 -14 -7 -41 -18 -60
-23 -19 -6 -69 -22 -110 -37 -41 -14 -86 -25 -100 -25 -14 0 -45 -9 -69 -20
-24 -11 -55 -20 -70 -20 -15 0 -54 -7 -86 -16 -109 -28 -287 -46 -516 -51
-196 -4 -244 -2 -355 16 -71 11 -149 27 -173 36 -24 8 -51 15 -60 15 -19 0
-216 72 -271 99 -186 93 -321 190 -476 345 -61 61 -126 134 -144 161 -18 28
-56 83 -83 123 -81 121 -165 284 -218 427 -12 33 -28 74 -35 92 -8 17 -14 37
-14 45 0 7 -6 25 -14 40 -8 15 -17 42 -21 60 -4 18 -13 42 -19 53 -7 11 -16
41 -19 68 -4 26 -13 61 -22 77 -8 16 -15 45 -15 65 0 20 -6 48 -14 63 -8 15
-17 54 -21 87 -3 33 -11 71 -16 85 -13 36 -40 183 -49 270 -4 41 -15 97 -24
123 -9 26 -16 68 -16 92 0 24 -6 64 -14 87 -8 24 -17 73 -21 110 -9 90 -34
113 -132 121 -94 9 -382 17 -413 11z m-2511 -1480 c67 -20 157 -59 226 -99 60
-36 269 -241 280 -276 4 -13 20 -40 34 -59 15 -19 46 -75 70 -125 23 -49 47
-99 53 -110 7 -11 15 -36 19 -55 4 -19 14 -53 23 -75 8 -22 15 -58 16 -80 0
-22 7 -51 15 -65 8 -14 14 -50 15 -80 0 -31 7 -83 16 -115 9 -33 19 -123 24
-200 4 -77 13 -154 20 -172 15 -40 10 -83 -12 -97 -13 -8 -31 -4 -75 13 -76
31 -159 111 -203 197 -18 35 -37 67 -41 70 -5 3 -9 16 -9 30 0 14 -6 37 -14
52 -8 15 -17 50 -21 77 -4 28 -13 69 -21 93 -8 23 -14 60 -14 81 0 21 -9 67
-20 101 -11 34 -20 81 -20 104 -1 22 -7 52 -15 66 -8 14 -14 41 -15 60 0 74
-74 212 -152 285 -43 41 -173 115 -201 115 -8 0 -28 7 -43 15 -40 21 -83 19
-140 -6 -68 -29 -112 -85 -152 -192 -18 -49 -22 -80 -22 -180 0 -137 -5 -153
-41 -138 -40 17 -54 34 -74 86 -25 69 -33 274 -11 324 8 20 17 50 21 66 8 36
101 179 143 219 17 15 57 41 89 57 69 34 163 38 252 13z m7983 -46 c30 -9 63
-37 137 -115 102 -107 143 -166 218 -318 25 -49 50 -98 55 -108 5 -10 20 -51
34 -90 20 -59 24 -92 24 -183 0 -106 -1 -113 -29 -150 -78 -106 -311 -291
-402 -319 -13 -4 -31 -13 -39 -20 -8 -7 -28 -15 -45 -18 -35 -6 -116 -33 -163
-53 -18 -8 -55 -14 -82 -14 -45 0 -51 3 -83 43 -49 62 -74 107 -82 152 -4 22
-11 45 -16 51 -16 19 30 58 96 83 83 32 300 138 360 177 53 35 82 74 97 133 5
20 13 53 19 74 7 31 5 46 -12 83 -23 51 -78 131 -126 184 -17 19 -42 49 -54
65 -13 17 -29 33 -36 38 -6 4 -28 34 -47 66 -26 42 -36 70 -36 100 0 111 96
174 212 139z m-2462 -2062 c47 -18 101 -38 120 -45 19 -7 58 -22 85 -33 28
-11 68 -23 90 -27 22 -4 63 -15 90 -24 78 -25 135 -38 205 -47 36 -5 90 -16
120 -25 30 -8 79 -15 108 -15 29 0 88 -8 130 -17 114 -24 964 -24 1062 0 36 9
92 17 126 17 33 0 83 7 110 15 38 12 261 35 344 37 63 0 170 -60 170 -96 0
-53 -20 -82 -83 -118 -68 -40 -222 -118 -232 -118 -4 0 -21 -6 -38 -14 -50
-22 -128 -47 -177 -56 -25 -5 -63 -16 -85 -24 -22 -8 -54 -15 -71 -16 -17 0
-51 -7 -74 -15 -23 -8 -73 -15 -110 -15 -37 0 -105 -7 -151 -16 -110 -22 -492
-25 -629 -5 -52 7 -126 17 -165 21 -69 7 -94 12 -225 45 -36 9 -85 19 -110 23
-25 5 -51 12 -59 17 -8 4 -31 12 -50 16 -33 7 -105 30 -156 50 -25 10 -143 54
-215 81 -30 11 -64 24 -75 29 -31 13 -106 39 -145 50 -74 21 -170 61 -195 81
-26 20 -27 23 -20 92 8 81 31 132 74 169 28 23 37 25 88 20 32 -3 96 -19 143
-37z m2004 -789 c25 -18 11 -43 -56 -100 -136 -115 -408 -207 -612 -207 -65 0
-230 33 -251 50 -5 4 -23 11 -40 14 -44 10 -165 87 -183 117 -31 53 -17 59
135 59 381 0 629 7 657 18 16 7 64 17 105 22 42 5 99 15 126 24 63 19 96 20
119 3z"/>
<path d="M10760 10796 c0 -39 31 -288 39 -308 4 -13 11 -56 15 -96 4 -40 14
-92 22 -114 8 -22 14 -65 14 -94 0 -29 6 -73 14 -96 8 -24 18 -65 21 -93 4
-27 13 -72 21 -100 7 -27 23 -90 34 -140 23 -96 35 -142 69 -245 12 -36 21
-76 21 -88 0 -13 6 -38 14 -55 7 -18 26 -72 41 -122 16 -49 32 -94 37 -99 4
-6 8 -17 8 -26 0 -8 9 -32 20 -53 11 -20 20 -44 20 -52 0 -8 9 -32 20 -52 11
-21 20 -44 20 -52 0 -28 222 -468 282 -559 10 -15 22 -37 27 -48 5 -12 31 -53
57 -90 25 -38 49 -76 53 -84 18 -44 88 -139 105 -144 11 -3 21 -4 21 -3 1 1
44 56 96 122 104 131 144 184 214 287 26 37 50 70 55 73 5 3 26 32 47 63 20
31 49 73 64 92 15 19 39 58 54 85 15 28 51 82 81 121 30 39 76 103 103 143 26
39 59 84 72 99 14 15 36 47 51 72 14 25 57 86 95 137 37 50 95 131 128 178 32
48 94 125 137 171 43 46 78 91 78 99 0 8 -17 19 -42 25 -24 6 -56 18 -71 26
-16 8 -34 14 -40 14 -17 0 -256 79 -286 94 -14 7 -39 18 -56 24 -67 23 -102
36 -130 48 -16 7 -70 29 -120 49 -49 21 -123 53 -163 71 -39 19 -75 34 -78 34
-4 0 -25 9 -48 19 -23 11 -48 22 -56 25 -8 3 -22 10 -30 15 -8 5 -69 35 -135
67 -66 32 -132 66 -147 76 -14 10 -31 18 -36 18 -6 0 -61 29 -122 65 -61 36
-116 65 -121 65 -6 0 -25 11 -42 24 -18 13 -61 40 -97 60 -36 21 -80 47 -98
59 -152 100 -225 147 -229 147 -3 0 -22 14 -43 30 -40 32 -80 40 -80 16z"/>
<path d="M14197 9563 c-3 -4 13 -35 35 -68 35 -53 79 -138 171 -335 14 -30 29
-67 32 -82 4 -15 13 -32 21 -39 8 -6 14 -17 14 -23 0 -11 116 -256 160 -338
11 -20 20 -44 20 -52 0 -18 68 -151 101 -197 13 -18 42 -70 65 -114 109 -216
205 -374 232 -383 16 -5 93 78 135 146 17 29 53 86 80 127 26 40 47 80 47 88
0 8 7 20 15 27 8 7 15 17 15 22 0 8 61 154 134 323 21 47 37 96 48 145 6 25
15 51 21 58 5 7 13 29 18 50 7 31 30 107 81 257 6 17 16 63 24 104 7 41 18 79
24 85 5 5 10 26 10 45 0 20 7 49 15 65 37 71 9 86 -109 56 -80 -20 -110 -21
-598 -22 -459 -1 -520 1 -578 17 -36 9 -92 21 -125 26 -33 4 -70 11 -81 14
-12 4 -24 3 -27 -2z"/>
<path d="M12770 8857 c-9 -7 -36 -39 -61 -72 -115 -153 -173 -227 -244 -310
-125 -149 -267 -325 -324 -405 -30 -41 -69 -95 -87 -120 -19 -25 -47 -67 -64
-95 -60 -102 -186 -196 -243 -181 -33 8 -164 98 -216 148 -39 39 -141 168
-152 193 -2 6 -15 28 -29 50 l-25 40 -3 -33 c-2 -19 4 -49 12 -67 9 -18 16
-41 16 -51 0 -17 73 -239 89 -273 30 -59 51 -114 51 -131 0 -10 4 -21 9 -25 5
-3 15 -22 21 -43 6 -20 17 -50 25 -67 7 -16 23 -57 35 -90 12 -33 37 -93 56
-133 19 -39 34 -76 34 -81 0 -11 36 -97 56 -133 7 -14 14 -33 14 -41 0 -18 50
-137 91 -219 11 -20 19 -44 19 -52 0 -8 6 -27 14 -43 8 -15 33 -72 56 -125 22
-54 47 -110 55 -125 8 -16 15 -35 15 -43 0 -8 7 -24 15 -34 8 -11 15 -26 15
-34 0 -8 9 -33 19 -56 11 -23 29 -66 41 -96 11 -30 25 -64 30 -75 18 -39 42
-111 51 -155 5 -24 14 -49 19 -54 6 -6 65 -13 133 -17 138 -7 150 -3 162 59 4
20 12 48 19 62 7 14 16 47 20 74 3 27 10 54 15 60 5 6 12 30 16 54 4 24 13 56
21 70 8 15 14 39 14 54 0 15 7 45 15 65 8 21 19 65 24 98 5 33 13 74 19 90 6
17 15 50 22 75 11 46 30 111 48 165 13 39 31 108 44 170 6 28 16 66 23 85 8
19 16 54 19 77 4 24 12 57 20 75 7 18 21 60 31 93 9 33 26 78 36 101 10 23 19
50 19 60 0 10 7 32 15 47 8 15 17 45 21 65 4 20 13 46 20 57 8 11 14 28 14 39
0 24 65 223 91 282 11 23 19 50 19 61 0 10 7 28 15 39 8 10 15 31 15 47 0 15
9 53 20 83 19 56 19 57 0 99 -11 24 -39 71 -62 105 -82 120 -98 145 -98 161 0
9 -7 22 -15 29 -8 7 -15 18 -15 24 0 6 -9 28 -20 49 -11 20 -20 42 -20 49 0
15 -36 111 -56 150 -8 14 -14 35 -14 45 0 37 -32 53 -60 30z"/>
<path d="M14138 8826 c-9 -13 -20 -36 -23 -52 -4 -16 -13 -46 -21 -67 -8 -20
-14 -47 -14 -60 0 -12 -22 -73 -50 -135 -46 -107 -81 -169 -186 -337 -49 -78
-55 -120 -30 -203 15 -50 29 -156 46 -337 6 -60 17 -178 25 -260 8 -83 15
-189 15 -235 0 -47 7 -112 15 -145 8 -33 17 -103 20 -155 3 -52 12 -142 20
-200 15 -108 28 -246 45 -476 5 -72 16 -158 25 -190 8 -32 15 -101 16 -154 0
-52 5 -117 10 -145 5 -27 12 -76 16 -107 3 -32 10 -62 17 -67 16 -13 109 10
135 33 24 22 43 60 101 201 23 55 48 114 56 132 8 17 14 37 14 45 0 7 6 22 14
33 7 11 17 31 20 45 4 14 20 52 36 85 15 33 38 83 50 110 12 28 30 68 41 91
10 23 19 46 19 51 0 6 9 32 21 59 11 27 27 65 36 84 8 19 20 49 28 65 7 17 23
55 35 85 12 30 28 69 35 85 8 17 16 41 20 55 3 14 10 34 15 45 14 31 40 105
52 150 6 22 17 49 25 60 7 11 13 33 13 50 0 17 7 40 15 51 8 12 19 39 24 60
10 42 36 117 51 149 37 80 70 186 73 235 2 21 -7 29 -55 53 -63 30 -76 45
-137 162 -24 44 -49 87 -57 96 -8 8 -14 19 -14 23 0 5 -24 49 -54 99 -29 51
-71 124 -91 162 -40 75 -63 110 -120 190 -20 28 -48 68 -62 90 -14 22 -58 90
-98 150 -41 61 -84 130 -97 155 -34 65 -62 110 -68 110 -3 -1 -13 -11 -22 -24z"/>
<path d="M10640 5666 c-19 -8 -47 -15 -61 -15 -36 -1 -74 -33 -66 -54 5 -13
20 -17 67 -17 36 0 81 -8 108 -18 64 -25 108 -41 162 -57 25 -7 61 -19 80 -25
47 -16 259 -121 274 -135 6 -6 32 -23 58 -38 67 -39 222 -190 269 -262 21 -33
43 -64 47 -70 22 -27 83 -139 88 -163 4 -15 13 -36 20 -47 6 -11 15 -40 19
-65 4 -25 13 -67 21 -95 18 -67 38 -407 30 -524 -10 -168 -45 -410 -71 -506
-8 -27 -17 -70 -21 -95 -4 -25 -13 -57 -20 -72 -8 -15 -14 -38 -14 -52 0 -14
-9 -48 -20 -76 -11 -28 -20 -61 -20 -75 0 -13 -6 -36 -14 -52 -24 -50 -46
-131 -40 -147 3 -9 15 -16 25 -16 10 0 45 -9 76 -19 40 -13 101 -21 197 -25
l138 -7 39 41 c22 23 39 46 39 53 0 7 7 24 15 40 8 15 18 51 24 80 5 28 14 65
20 80 6 16 11 46 11 68 0 22 7 56 16 77 8 20 19 87 24 147 5 61 13 126 19 145
6 19 11 62 11 95 0 33 7 105 16 160 13 79 16 167 15 420 -1 176 -4 328 -7 337
-3 9 -11 63 -18 120 -8 57 -18 117 -24 133 -6 17 -15 48 -20 70 -58 238 -228
443 -460 552 -52 24 -108 46 -126 49 -17 3 -60 14 -96 24 -119 33 -212 42
-505 46 -235 3 -297 1 -325 -10z"/>
<path d="M12356 5415 c-3 -8 -1 -15 4 -15 14 0 75 -131 95 -205 9 -33 23 -131
30 -217 7 -86 17 -163 21 -170 12 -18 5 -891 -7 -953 -6 -27 -14 -107 -18
-176 -5 -70 -14 -137 -21 -149 -6 -11 -15 -60 -19 -108 -5 -48 -13 -100 -19
-117 -11 -32 -27 -92 -43 -165 -13 -55 -37 -145 -51 -185 -42 -126 -34 -151
59 -189 37 -15 86 -36 109 -47 23 -10 49 -19 58 -19 10 0 27 -5 38 -11 12 -7
49 -18 82 -26 34 -7 79 -18 101 -23 46 -11 277 -13 325 -4 47 10 93 95 120
222 5 23 14 50 19 60 5 9 14 50 20 91 7 41 14 78 18 84 3 5 9 45 14 89 4 44
13 86 19 93 6 7 15 49 19 93 5 44 11 85 15 91 9 14 33 152 47 266 6 44 16 121
24 171 11 68 15 191 15 508 l0 418 -57 116 c-55 115 -113 212 -143 242 -23 22
-98 70 -110 70 -6 0 -21 7 -35 16 -31 20 -218 83 -269 90 -23 3 -62 14 -88 25
-26 10 -66 19 -90 19 -24 0 -68 7 -98 15 -74 20 -176 20 -184 0z m467 -2182
c30 -4 56 -23 119 -83 l81 -78 -7 -58 c-14 -117 -70 -164 -197 -164 -56 0 -80
4 -89 15 -7 8 -22 15 -34 15 -23 0 -59 34 -91 85 -29 46 -27 142 5 187 50 74
113 98 213 81z"/>
</g>
</svg>
